<?xml version="1.0" standalone="no"?>
<!DOCTYPE svg PUBLIC "-//W3C//DTD SVG 20010904//EN"
 "http://www.w3.org/TR/2001/REC-SVG-20010904/DTD/svg10.dtd">
<svg version="1.0" xmlns="http://www.w3.org/2000/svg"
 width="206.000000pt" height="209.000000pt" viewBox="0 0 206.000000 209.000000"
 preserveAspectRatio="xMidYMid meet">

<g transform="translate(0.000000,209.000000) scale(0.100000,-0.100000)"
fill="#000000" stroke="none">
<path d="M832 2067 c-8 -9 -12 -212 -14 -664 -3 -643 -3 -652 -24 -680 -34
-46 -59 -52 -211 -54 -118 -2 -145 0 -167 14 -55 36 -61 58 -64 237 -2 92 -9
171 -14 178 -16 19 -291 17 -308 -2 -8 -11 -10 -72 -8 -223 3 -188 6 -213 26
-265 62 -155 213 -238 435 -238 81 0 82 22 -12 -193 -38 -86 -68 -157 -66
-157 2 0 14 19 28 43 13 23 83 143 154 267 72 124 199 344 283 490 84 146 182
317 219 380 l66 115 3 358 c3 314 1 362 -13 383 -15 24 -18 24 -159 24 -107 0
-146 -3 -154 -13z"/>
<path d="M1563 1712 c-12 -7 -41 -99 -201 -631 -53 -178 -101 -324 -107 -325
-5 0 -31 69 -58 155 l-48 157 90 208 c50 114 89 209 88 211 -6 5 -362 -622
-365 -642 -3 -19 179 -644 225 -773 26 -73 83 -91 119 -37 8 13 46 126 84 252
140 466 299 989 309 1013 13 34 13 25 15 -678 1 -565 2 -584 20 -598 28 -20
264 -20 292 0 19 14 19 34 19 839 0 683 -2 827 -14 841 -12 14 -41 16 -235 16
-121 0 -226 -4 -233 -8z"/>
<path d="M762 513 c-11 -16 -39 -63 -63 -106 -24 -43 -54 -94 -66 -115 -12
-20 -30 -52 -40 -69 -10 -18 -40 -69 -66 -114 -38 -64 -46 -84 -35 -91 7 -5
73 -7 146 -6 105 2 135 6 142 18 9 14 15 510 6 510 -3 0 -13 -12 -24 -27z"/>
</g>
</svg>
